<svg xmlns:dc="http://purl.org/dc/elements/1.1/" xmlns:cc="http://creativecommons.org/ns#" xmlns:rdf="http://www.w3.org/1999/02/22-rdf-syntax-ns#" xmlns:svg="http://www.w3.org/2000/svg" xmlns="http://www.w3.org/2000/svg" viewBox="0 0 360 360" fill="none"><metadata><rdf:RDF><cc:Work><dc:format>image/svg+xml</dc:format><dc:type rdf:resource="http://purl.org/dc/dcmitype/StillImage"/><dc:title>Avatar Illustration System</dc:title><dc:creator><cc:Agent><dc:title>Micah Lanier</dc:title></cc:Agent></dc:creator><dc:source>https://www.figma.com/community/file/829741575478342595</dc:source><cc:license rdf:resource="https://creativecommons.org/licenses/by/4.0/"/></cc:Work><cc:License rdf:about="https://creativecommons.org/licenses/by/4.0/"><cc:permits rdf:resource="https://creativecommons.org/ns#Reproduction"/><cc:permits rdf:resource="https://creativecommons.org/ns#Distribution"/><cc:permits rdf:resource="https://creativecommons.org/ns#DerivativeWorks"/><cc:requires rdf:resource="https://creativecommons.org/ns#Notice"/><cc:requires rdf:resource="https://creativecommons.org/ns#Attribution"/></cc:License></rdf:RDF></metadata><mask id="avatarsRadiusMask"><rect width="360" height="360" rx="0" ry="0" x="0" y="0" fill="#fff"/></mask><g mask="url(#avatarsRadiusMask)"><g transform="translate(80 23)"><path d="M154 319.5c-14.4-20-25.667-58.666-27-78L58.5 212 30 319.5h124Z" fill="rgba(172, 102, 81, 1)" stroke="#000" stroke-width="4"/><mask id="baseStandard-a" style="mask-type:alpha" maskUnits="userSpaceOnUse" x="30" y="212" width="124" height="118"><path d="M154 329.5c-14.4-20-25.667-68.666-27-88L58.5 212 30 329.5h124Z" fill="rgba(172, 102, 81, 1)"/></mask><g mask="url(#baseStandard-a)"><ellipse cx="124" cy="210" rx="59" ry="54" fill="#000" style="mix-blend-mode:multiply"/></g><path d="m181.939 151.374.002.009.093.389.144.654c8.851 40.206-16.109 80.258-56.315 89.89-40.205 9.633-80.606-14.759-90.935-54.61l-.19-.733-16.735-69.844-.067-.289C8.512 76.334 33.544 35.757 74.048 26.053c40.504-9.704 81.206 15.123 91.161 55.501l.051.208.02.083.001.005.048.198.047.199.002.004 16.396 68.437.003.009.081.338.081.339Z" fill="rgba(172, 102, 81, 1)" stroke="#000" stroke-width="4"/><g><g transform="translate(34 102.3)"/></g></g><g transform="translate(170 183)"><path d="M62.807 25.177a34 34 0 0 0 1.113-11.846c-.17-2.068-2.284-3.22-4.075-2.513-4.229 1.666-18.218 6.965-28.082 8.322-10.823 1.49-27.213-.319-31.957-.908-1.93-.24-3.649 1.418-3.316 3.433a34 34 0 0 0 66.317 3.512Z" fill="rgba(0, 0, 0, 1)" stroke="rgba(0, 0, 0, 1)" stroke-width="4"/><mask id="mouthLaughing-a" style="mask-type:alpha" maskUnits="userSpaceOnUse" x="-2" y="12" width="65" height="37"><path d="M61.793 12.193A32.001 32.001 0 0 1-1.723 20.05l63.516-7.858Z" fill="#171921"/></mask><g mask="url(#mouthLaughing-a)"><circle cx="34.522" cy="52.315" r="21.5" transform="rotate(-7.053 34.522 52.315)" fill="#FC909F"/></g></g><g transform="translate(110 102)"><g stroke="rgba(0, 0, 0, 1)" stroke-width="4" stroke-linecap="round"><path d="M27 26.5c6.167 2.5 21.1 3 31.5-15M94 4c5.167 5.333 18.1 12.8 28.5 0"/></g></g><g transform="translate(49 11)"><g stroke="#000"><path d="M105.837 88.82c1.888.297 1.888.299 1.887.3v.004l-.001.007-.003.018a.813.813 0 0 0-.009.05l-.031.157a11.69 11.69 0 0 1-.125.528 20.355 20.355 0 0 1-.6 1.894c-.595 1.625-1.626 3.958-3.393 6.923-3.17 5.317-8.702 12.658-18.316 21.589 29.97.747 55.004-8.908 72.821-19.033 9.361-5.32 16.712-10.759 21.717-14.863a118.433 118.433 0 0 0 5.698-4.965 74.331 74.331 0 0 0 1.804-1.742c.039-.04.067-.07.086-.088l.019-.02.004-.004 2.282-2.374.929 3.16-1.834.538 1.834-.538.001.002.002.009.01.034.039.132.152.52.581 1.993a2171.99 2171.99 0 0 1 8.771 31.058c5.027 18.348 10.604 39.815 12.693 51.971 3.493 20.318-1.908 35.744-5.102 44.869-.621 1.774-1.159 3.31-1.531 4.597.053.045.123.1.214.165.597.423 1.656.911 3.187 1.397 3.015.959 7.319 1.745 11.921 2.188 4.594.442 9.377.532 13.338.146 1.982-.194 3.705-.502 5.075-.92 1.316-.402 2.14-.857 2.585-1.268.013-.086.031-.291-.019-.688-.098-.776-.405-1.868-.937-3.313-.793-2.157-1.969-4.798-3.344-7.885a820.46 820.46 0 0 1-1.46-3.294c-3.929-8.939-8.656-20.564-9.686-32.408-1.144-13.161 1.457-24.416 3.794-34.533l.111-.482c2.388-10.34 4.375-19.319 2.335-28.419-3.096-13.81-7.319-25.308-13.804-33.57-6.417-8.174-15.12-13.276-27.496-14.214l-1.278-.096-.395-1.22c-5.695-17.57-13.383-29.051-23.186-36.17-9.8-7.117-21.956-10.051-36.939-10.051-27.688 0-57.503 10.52-79.878 28.718-22.351 18.18-37.143 43.896-35.208 74.334 2.136 33.591-.298 59.061-5.788 77.712-5.006 17.007-12.593 28.466-21.688 35.15 1.194.609 2.784 1.383 4.771 2.269 5.027 2.24 12.591 5.198 22.674 8.027 19.334 5.425 47.945 10.38 85.711 8.887-8.325-7.151-16.723-15.828-23.374-25-7.633-10.527-13.135-21.943-13.296-32.575-.191-12.627.664-45.668.928-52.507.615-15.896 10.822-28.15 20.538-36.3 4.887-4.099 9.728-7.228 13.344-9.331a87.365 87.365 0 0 1 4.38-2.39c.53-.27.949-.474 1.239-.612l.208-.099a24.4 24.4 0 0 1 .126-.058l.09-.042.025-.011.007-.004h.003c.001-.001.001-.001.787 1.74Zm0 0 1.888.297.551-3.494-3.225 1.455.786 1.742Zm100.231 126.568c.003 0 .014.014.029.04-.024-.027-.031-.04-.029-.04Z" fill="rgba(244, 209, 80, 1)" stroke-width="3.822"/><path d="M191 58c.5 4.5-.3 13.5-1.5 19.5" stroke-width="4"/></g></g><g transform="translate(142 119)"><g fill="#000"><ellipse cx="16.53" cy="29.402" rx="9" ry="13.5" transform="rotate(-6.776 16.53 29.402)"/><ellipse cx="80.531" cy="19.402" rx="9" ry="13.5" transform="rotate(-6.276 80.531 19.402)"/></g><g transform="translate(-40 -8)"><g stroke="rgba(107, 217, 233, 1)" stroke-width="4"><circle cx="122.5" cy="28" r="26"/><circle cx="55.5" cy="37" r="26"/><path d="M97.5 35a8 8 0 0 0-16 0M30 39 0 44.5"/></g></g></g><g transform="rotate(-8 1149.438 -1186.916)"><path d="M16.5 3c0 14 7 25 7 25S20 34 10 32" stroke="#000" stroke-width="4"/></g><g transform="translate(84 154)"><path d="M30.5 6.176A23.778 23.778 0 0 0 23.08 5c-10.493 0-19 6.5-18 18.5 1.042 12.5 8.507 17 19 17 1.168 0 2.31-.102 3.42-.299 1.21-.214 2.381-.54 3.5-.966" stroke="#000" stroke-width="8"/><path d="M31.5 39.036a19.382 19.382 0 0 1-7.42 1.464c-10.493 0-17.958-4.5-19-17-1-12 7.507-18.5 18-18.5 3.138 0 6.187.606 8.92 1.73l-.5 32.306Z" fill="rgba(172, 102, 81, 1)"/><path d="M27.5 13.5c-4-1.833-12.8-2.8-16 8" stroke="#000" stroke-width="4"/><path d="M17 14c2.167 1.833 6.3 7.5 5.5 15.5" stroke="#000" stroke-width="4"/><g transform="translate(3 35)"><path d="M24 0c13.255 0 24 10.745 24 24S37.255 48 24 48 0 37.255 0 24c0-6.391 3.5-11.5 6.572-16.5L7.5 6" stroke="rgba(255, 237, 239, 1)" stroke-width="4"/></g></g><g transform="translate(53 272)"><g stroke="#000" stroke-width="4"><path d="M260.694 91h-273.32c16.3-29.342 39.484-48.018 77.07-56.588C80.459 30.76 99.114 28.939 121 28.939c9.456 0 16.814 1.443 23.796 3.346 2.587.705 5.187 1.496 7.847 2.304 4.402 1.337 8.968 2.725 13.909 3.86l.14.032.144.012C212.961 42.297 240.62 62.785 260.694 91Z" fill="rgba(255, 255, 255, 1)"/><path d="m52.93 36.58 9.154-19.596c.218-.468.762-.691 1.249-.519 37.926 13.425 72.429 12.48 104.403 3.58.403-.113.833.036 1.079.373l13.932 19.052c.383.524.188 1.262-.416 1.5-33.607 13.196-96.668 10.953-128.916-3.066a.978.978 0 0 1-.484-1.324Z" fill="rgba(255, 255, 255, 1)"/><path opacity=".75" d="m52.93 36.58 9.154-19.596c.218-.468.762-.691 1.249-.519 37.926 13.425 72.429 12.48 104.403 3.58.403-.113.833.036 1.079.373l13.932 19.052c.383.524.188 1.262-.416 1.5-33.607 13.196-96.668 10.953-128.916-3.066a.978.978 0 0 1-.484-1.324Z" fill="#fff"/></g></g></g></svg>